# xmcd
#
# Track frame offsets:
#	150
#	19787
#	44686
#	64739
#	80642
#	97277
#	117681
#	138787
#	162192
#	180857
#	201718
#	225574
#
# Disc length: 3171 seconds
#
# Revision: 0
# Processed by: cddbd v1.5.2PL0 Copyright (c) Steve Scherf et al.
# Submitted via: audiograbber 1.83.01
#
DISCID=aa0c610c
DTITLE=Jacksboro Highway - Light'n the Load 
DYEAR=2004
DGENRE=
TTITLE0=Help Me
TTITLE1=Stormy Monday
TTITLE2=My Mistake
TTITLE3=Same Old Blues 
TTITLE4=Anything you want me to do 
TTITLE5=Take it Down 
TTITLE6=The Thrill has Gone 
TTITLE7=Light'n the Load 
TTITLE8=Sensitive Kind 
TTITLE9=Wrapped up in her arms 
TTITLE10=The Bottle Tore me Down
TTITLE11=Why are people like that 
EXTD=
EXTT0=
EXTT1=
EXTT2=
EXTT3=
EXTT4=
EXTT5=
EXTT6=
EXTT7=
EXTT8=
EXTT9=
EXTT10=
EXTT11=
PLAYORDER=
